<?xml version="1.0" standalone="no"?>
<!DOCTYPE svg PUBLIC "-//W3C//DTD SVG 20010904//EN"
 "http://www.w3.org/TR/2001/REC-SVG-20010904/DTD/svg10.dtd">
<svg version="1.0" xmlns="http://www.w3.org/2000/svg"
 width="180.000000pt" height="180.000000pt" viewBox="0 0 180.000000 180.000000"
 preserveAspectRatio="xMidYMid meet">
<metadata>
Created by potrace 1.14, written by Peter Selinger 2001-2017
</metadata>
<g transform="translate(0.000000,180.000000) scale(0.100000,-0.100000)"
fill="#000000" stroke="none">
<path d="M0 900 l0 -900 900 0 900 0 0 900 0 900 -900 0 -900 0 0 -900z m929
465 c81 -88 124 -213 119 -346 l-3 -74 -18 70 c-19 77 -63 177 -94 214 l-19
24 -17 -69 c-23 -90 -60 -170 -130 -273 -85 -126 -101 -174 -102 -302 0 -103
1 -108 37 -178 20 -39 33 -71 28 -71 -4 0 -27 18 -51 39 -52 45 -91 112 -114
196 -9 33 -41 108 -70 166 -77 149 -168 438 -146 461 3 3 53 27 111 53 106 48
203 77 298 90 l52 7 0 -30 c0 -54 -16 -82 -47 -82 -38 0 -163 -33 -243 -63
-48 -18 -66 -29 -68 -45 -7 -43 90 -318 108 -307 5 3 12 20 15 38 4 17 25 70
47 117 35 73 42 82 47 61 4 -13 14 -29 24 -35 51 -31 125 145 134 321 l6 102
27 -19 c14 -10 45 -39 69 -65z m246 -30 c47 -14 129 -44 181 -68 l95 -42 -5
-51 c-20 -176 -161 -501 -276 -635 l-37 -43 4 31 c3 18 0 46 -6 63 -9 28 -6
36 35 97 25 36 59 93 75 126 31 60 102 266 112 324 6 31 5 32 -61 58 -37 15
-111 37 -164 49 l-96 22 -36 53 -37 54 65 -7 c36 -4 104 -18 151 -31z m-239
-425 c-3 -36 -15 -98 -26 -137 -26 -94 -26 -147 0 -173 24 -24 43 -25 65 -3
14 13 16 28 10 84 -4 37 -4 81 0 98 l6 30 30 -52 c96 -173 106 -222 62 -306
-40 -76 -93 -105 -180 -97 -70 6 -94 16 -136 55 -36 33 -54 66 -67 127 -14 61
-4 188 14 181 8 -3 23 16 38 46 15 29 49 79 78 112 28 33 61 81 73 108 22 47
22 47 30 20 4 -16 6 -57 3 -93z"/>
</g>
</svg>
