<svg width="128" height="128" viewBox="0 0 128 128" fill="none" xmlns="http://www.w3.org/2000/svg">
<g id="Logo">
<g id="Layer 2">
<g id="Layer 1">
<path id="Vector" d="M43.7755 81.1149C44.1123 82.7609 45.08 84.4192 45.7575 85.2614C46.1219 81.0806 49.6448 73.752 57.5531 65.2315C67.0104 55.0453 66.1951 48.0566 66.1951 48.0566C69.8533 57.9542 68.4975 67.0675 63.5585 83.0602C57.9892 101.093 76.8395 101.583 73.2604 88.9791C70.1044 77.8815 74.8371 72.6082 74.8371 72.6082C74.6586 81.0717 82.9762 84.9141 86.0604 97.5763C89.0182 109.717 80.1536 123.894 64.9037 122.687C32.386 120.109 43.7755 81.1149 43.7755 81.1149Z" fill="url(#paint0_linear_373_5037)"/>
<g id="Vector_2">
<path d="M33.9492 82.4877C26.6361 71.1267 19.8113 56.167 15.4552 36.6629L15.2457 35.7286L16.1131 35.321C27.8328 29.8436 40.3923 26.382 53.2633 25.0818C53.9253 22.4085 54.5816 18.5946 54.6493 13.6816C41.6375 14.7779 28.9289 18.2047 17.1298 23.7985L4.56543 29.6539L5.19483 33.5078C5.48996 35.4971 11.1309 71.5523 34.4864 99.9055C33.875 93.5129 33.8994 85.8606 33.9492 82.4877Z" fill="#00A991"/>
<path d="M33.9492 82.4877C26.6361 71.1267 19.8113 56.167 15.4552 36.6629L15.2457 35.7286L16.1131 35.321C27.8328 29.8436 40.3923 26.382 53.2633 25.0818C53.9253 22.4085 54.5816 18.5946 54.6493 13.6816C41.6375 14.7779 28.9289 18.2047 17.1298 23.7985L4.56543 29.6539L5.19483 33.5078C5.48996 35.4971 11.1309 71.5523 34.4864 99.9055C33.875 93.5129 33.8994 85.8606 33.9492 82.4877Z" fill="url(#paint1_linear_373_5037)"/>
</g>
<path id="Vector_3" fill-rule="evenodd" clip-rule="evenodd" d="M56.3495 5.13672C58.6706 18.1756 51.7024 51.3985 42.5532 50.9509C38.4915 50.7528 39.9158 43.0043 39.9158 43.0043C39.9158 43.0043 30.2473 56.8821 27.3579 74.0032C23.4372 97.2184 33.5826 116.468 48.6581 122.85C39.9011 111.978 33.4269 97.8756 41.9491 76.5844C48.3083 60.6863 60.2784 55.329 65.369 26.7948C77.2893 38.1811 79.1172 62.7595 79.1172 62.7595C86.7141 20.4984 56.3495 5.13672 56.3495 5.13672Z" fill="url(#paint2_linear_373_5037)"/>
<path id="Vector_4" d="M88.6601 97.5781C88.3072 96.1262 87.8578 94.6996 87.3149 93.3076C104.472 72.8675 110.786 45.0117 112.575 36.6541L112.774 35.7255L111.913 35.3228C100.825 30.1367 89.3425 26.8267 77.6334 25.3763C75.5267 20.3566 72.3585 16.2271 69.8164 13.4062C84.0529 14.1506 97.8476 17.6335 110.907 23.806L123.462 29.6582L122.835 33.5234C122.534 35.525 115.054 79.367 88.396 108.081C89.3556 104.684 89.5072 101.05 88.6601 97.5781Z" fill="url(#paint3_linear_373_5037)"/>
</g>
</g>
</g>
<defs>
<linearGradient id="paint0_linear_373_5037" x1="39.8843" y1="85.4079" x2="96.4842" y2="85.4079" gradientUnits="userSpaceOnUse">
<stop stop-color="#F5A937"/>
<stop offset="1" stop-color="#F34900"/>
</linearGradient>
<linearGradient id="paint1_linear_373_5037" x1="2.37517" y1="56.7936" x2="65.6736" y2="56.7936" gradientUnits="userSpaceOnUse">
<stop stop-color="#F6A535"/>
<stop offset="1" stop-color="#F58221"/>
</linearGradient>
<linearGradient id="paint2_linear_373_5037" x1="24.1578" y1="63.9935" x2="92.1851" y2="63.9935" gradientUnits="userSpaceOnUse">
<stop stop-color="#F5A937"/>
<stop offset="1" stop-color="#F34900"/>
</linearGradient>
<linearGradient id="paint3_linear_373_5037" x1="67.4704" y1="60.7434" x2="135.271" y2="60.7434" gradientUnits="userSpaceOnUse">
<stop stop-color="#F58020"/>
<stop offset="1" stop-color="#F45B0B"/>
</linearGradient>
</defs>
</svg>
